<?xml version="1.0" encoding="UTF-8"?>
<svg version="1.1" xmlns="http://www.w3.org/2000/svg" width="1500" height="1500">
<path d="M0 0 C495 0 990 0 1500 0 C1500 495 1500 990 1500 1500 C1005 1500 510 1500 0 1500 C0 1005 0 510 0 0 Z " fill="#E6E1DC" transform="translate(0,0)"/>
<path d="M0 0 C1.45237061 0.71905518 1.45237061 0.71905518 2.93408203 1.45263672 C29.15258619 14.499515 53.16175174 30.46237757 75 50 C75.92425781 50.825 76.84851563 51.65 77.80078125 52.5 C79.45904384 53.98966837 81.11304117 55.48410539 82.76171875 56.984375 C84.87189491 58.88463834 87.02287855 60.72484813 89.1875 62.5625 C92.54550751 65.48221336 95.42006659 68.65125808 98.29296875 72.04296875 C99.91260807 73.89980925 101.60123291 75.60397492 103.375 77.3125 C107.50416423 81.38673079 111.08967153 85.8592905 114.70507812 90.38867188 C116.08727834 92.10860427 117.487746 93.81252619 118.890625 95.515625 C125.84332536 104.00376015 132.1194402 112.7407076 138 122 C138.42071777 122.65210449 138.84143555 123.30420898 139.27490234 123.97607422 C188.96908506 201.23456122 205.43499721 295.17676004 186.59375 384.89453125 C184.5031358 394.41465305 182.0111117 403.73129045 179 413 C178.51490967 414.50457764 178.51490967 414.50457764 178.02001953 416.03955078 C167.48249202 448.37919814 153.3465456 478.95915583 134 507 C133.30946533 508.00691895 133.30946533 508.00691895 132.60498047 509.03417969 C127.11335543 517.00400403 121.25543073 524.61089898 115 532 C114.53303711 532.55719727 114.06607422 533.11439453 113.58496094 533.68847656 C107.35147727 541.12398705 100.9868941 548.25449572 94 555 C91.47682888 557.50697098 88.97228171 560.02849543 86.4921875 562.578125 C80.32701747 568.87211948 73.91199111 574.52120389 67 580 C65.90181772 580.90925487 64.80554788 581.82082321 63.7109375 582.734375 C15.43755375 622.71181881 -44.80915702 646.14983513 -106.3125 655.6875 C-107.43833496 655.86647827 -107.43833496 655.86647827 -108.58691406 656.04907227 C-142.13178827 661.02467941 -178.6766394 659.89785479 -212 654 C-213.07878418 653.81276367 -214.15756836 653.62552734 -215.26904297 653.43261719 C-275.3917642 642.69012202 -337.44535843 614.34594994 -382 572 C-383.41011447 570.76332207 -384.826336 569.53355527 -386.25 568.3125 C-390.01200552 565.0428633 -393.51276137 561.55776705 -397 558 C-399.58144649 555.40566776 -402.17621416 552.8282158 -404.796875 550.2734375 C-411.35520991 543.86076979 -417.36490016 537.25427626 -423 530 C-423.49113281 529.37464355 -423.98226562 528.74928711 -424.48828125 528.10498047 C-432.13055179 518.36387469 -439.3621285 508.45293683 -446 498 C-446.70125 496.90429688 -447.4025 495.80859375 -448.125 494.6796875 C-475.23582532 451.38749911 -491.09650264 403.0948974 -497.59863281 352.67529297 C-497.93176979 350.10868529 -497.93176979 350.10868529 -498.51538086 348.08618164 C-501.16815647 336.66655061 -500.20382556 323.61889484 -500.1875 311.9375 C-500.18689575 311.12985199 -500.1862915 310.32220398 -500.18566895 309.49008179 C-500.15889178 296.23423992 -499.67682556 283.16238004 -498 270 C-497.88172852 269.02224609 -497.76345703 268.04449219 -497.64160156 267.03710938 C-492.85603171 228.58207221 -481.16933331 191.68975456 -464 157 C-463.53980469 156.06188477 -463.07960938 155.12376953 -462.60546875 154.15722656 C-456.00614115 140.80167092 -448.41107517 128.28836914 -440 116 C-439.53674316 115.32291992 -439.07348633 114.64583984 -438.59619141 113.94824219 C-433.10748188 105.98486605 -427.2508288 98.38366509 -421 91 C-420.53303711 90.44280273 -420.06607422 89.88560547 -419.58496094 89.31152344 C-413.35147727 81.87601295 -406.9868941 74.74550428 -400 68 C-397.40360317 65.4204903 -394.8282789 62.82385056 -392.2734375 60.203125 C-386.36586778 54.16133855 -380.33745757 48.51063444 -373.6640625 43.3046875 C-371.73293301 41.79060945 -369.82037873 40.25425986 -367.90625 38.71875 C-357.98573229 30.81668319 -347.81851346 23.61659083 -337 17 C-336.29488281 16.56703613 -335.58976563 16.13407227 -334.86328125 15.68798828 C-325.47393714 9.95646925 -315.91156018 4.72541212 -305.99609375 -0.03662109 C-304.01041462 -0.99497357 -302.03631733 -1.9745197 -300.0625 -2.95703125 C-271.60588628 -16.9451177 -241.12375189 -25.44669802 -210 -31 C-208.81680176 -31.21317871 -207.63360352 -31.42635742 -206.41455078 -31.64599609 C-137.17568759 -43.59811197 -62.59483823 -31.36843787 0 0 Z " fill="#E6E1DC" transform="translate(903,651)"/>
<path d="M0 0 C1.32 0 2.64 0 4 0 C4.00059709 0.61829788 4.00119418 1.23659575 4.00180936 1.87362993 C4.03771651 38.53278568 4.09437575 75.19185492 4.17792095 111.85093417 C4.18793821 116.25430083 4.19778237 120.65766787 4.20751953 125.06103516 C4.2094609 125.93765279 4.21140228 126.81427043 4.21340248 127.71745224 C4.24440924 141.90471838 4.26139944 156.09196836 4.27319422 170.27926199 C4.28561264 184.84069616 4.31312964 199.40204558 4.35461307 213.96342623 C4.3797287 222.9459508 4.39311869 231.92833477 4.39142957 240.91089495 C4.39139978 247.07363117 4.40605833 253.23622437 4.43216428 259.39890485 C4.44678746 262.95255075 4.45503295 266.50590334 4.44580269 270.05957413 C4.43594925 273.91859748 4.45707721 277.77710866 4.48101807 281.63607788 C4.47325765 282.75088827 4.46549723 283.86569865 4.45750165 285.01429117 C4.5617203 294.51911024 6.8221523 302.50713686 13.44140625 309.5390625 C20.36856053 316.03218456 28.70269441 318.68592983 38.08984375 318.421875 C45.58326651 317.33558016 52.3885799 314.0322863 58 309 C64.49879714 299.49941539 66.01894255 290.94489933 65.84228516 279.52441406 C65.84523091 278.03119547 65.85122299 276.53798033 65.85998535 275.04478455 C65.87465773 271.03420647 65.84621965 267.02503365 65.80855227 263.01464939 C65.77564606 258.79533656 65.78064415 254.57604594 65.78060913 250.35662842 C65.77506644 243.27901865 65.74291268 236.20193991 65.69287109 229.12451172 C65.63533749 220.96389112 65.61255444 212.80377532 65.6099869 204.64296365 C65.60705449 195.91606955 65.58122678 187.18935871 65.54742002 178.4625349 C65.53909586 175.96314178 65.53472528 173.46376711 65.531147 170.9643631 C65.52419956 167.02753266 65.50163349 163.09107481 65.46737671 159.15439034 C65.4570911 157.71698009 65.45171275 156.27952429 65.45182419 154.84207726 C65.44764897 144.24032507 64.88227436 134.55070451 58 126 C51.27498157 120.20457375 41.55018232 119.53786396 33 119 C33 117.68 33 116.36 33 115 C33.62623764 114.99413376 34.25247528 114.98826752 34.89768982 114.98222351 C41.50213808 114.91756155 48.10613126 114.83296957 54.71020508 114.73754883 C57.16457055 114.70459246 59.6190065 114.67647271 62.07348633 114.65356445 C90.83580453 114.73341927 90.83580453 114.73341927 117 104 C117.70511719 103.10023438 118.41023438 102.20046875 119.13671875 101.2734375 C120.05904297 100.14808594 120.05904297 100.14808594 121 99 C122.32 99 123.64 99 125 99 C125.00238835 99.96814762 125.00477671 100.93629524 125.00723743 101.93378067 C125.0661056 125.52160002 125.1420336 149.10931783 125.23571491 172.6970253 C125.28062655 184.10399703 125.32005191 195.51093787 125.34643555 206.91796875 C125.36945312 216.86359672 125.40289314 226.80912652 125.44870156 236.75467658 C125.47258304 242.01780372 125.49134506 247.28083394 125.49761391 252.54401398 C125.50368773 257.50493376 125.52377026 262.46560574 125.55427551 267.42643356 C125.56301903 269.24034017 125.56678602 271.05427921 125.56500816 272.86820602 C125.54774166 292.86993949 125.54774166 292.86993949 135 310 C142.38243112 316.15202594 149.58923177 318.2053129 159 319 C159 320.32 159 321.64 159 323 C39.54 323 -79.92 323 -203 323 C-203 321.68 -203 320.36 -203 319 C-202.09378906 318.91363281 -201.18757812 318.82726562 -200.25390625 318.73828125 C-192.74249169 317.87188528 -185.92805159 317.01403482 -180 312 C-178.23420669 309.71137404 -177.20753397 307.66663752 -176 305 C-175.67 304.34 -175.34 303.68 -175 303 C-174.79388163 300.77686612 -174.68563529 298.54434506 -174.625 296.3125 C-174.57601562 295.11238281 -174.52703125 293.91226562 -174.4765625 292.67578125 C-175.13976422 280.82802982 -181.68434734 268.49863264 -186.1875 257.625 C-191.88496191 243.78600974 -197.44117418 229.89706454 -203 216 C-235.67 215.67 -268.34 215.34 -302 215 C-302.99 217.97 -303.98 220.94 -305 224 C-305.62403616 225.66662392 -306.2636706 227.32763252 -306.92944336 228.97802734 C-307.27667953 229.84277679 -307.62391571 230.70752625 -307.98167419 231.59848022 C-308.34737015 232.50184113 -308.7130661 233.40520203 -309.08984375 234.3359375 C-309.47564102 235.29593658 -309.86143829 236.25593567 -310.25892639 237.24502563 C-311.48261913 240.28936305 -312.70973997 243.33230086 -313.9375 246.375 C-315.16139773 249.4106728 -316.38446666 252.44666936 -317.60536194 255.48355103 C-318.36155317 257.36430684 -319.11943499 259.24438423 -319.87937927 261.12362671 C-327.51449866 279.17654924 -327.51449866 279.17654924 -325.5 298.25 C-321.48465517 306.85431035 -315.67904324 312.50396003 -306.8984375 316.0703125 C-302.33678501 317.53348405 -297.74467708 318.38511922 -293 319 C-293 320.32 -293 321.64 -293 323 C-319.4 323 -345.8 323 -373 323 C-372.67 321.35 -372.34 319.7 -372 318 C-370.12424144 317.22959916 -368.23743231 316.47731761 -366.30859375 315.8515625 C-350.92358924 310.17655238 -340.64884229 293.15051487 -334.02807617 278.92285156 C-332.1864703 274.76084238 -330.49589739 270.54035659 -328.8125 266.3125 C-328.17360765 264.74099682 -327.5333538 263.17004658 -326.8918457 261.59960938 C-325.23611188 257.53674476 -323.59767432 253.46714466 -321.96350098 249.39556885 C-320.43140562 245.58629412 -318.88352911 241.78346801 -317.3359375 237.98046875 C-315.18124842 232.68157364 -313.03177202 227.38061991 -310.88882446 222.07696533 C-306.35270012 210.85110165 -301.77512045 199.64240419 -297.1875 188.4375 C-296.81120453 187.51831787 -296.43490906 186.59913574 -296.04721069 185.65209961 C-294.13126627 180.97218905 -292.21491412 176.29244561 -290.29833984 171.61279297 C-286.90398447 163.32429259 -283.51337844 155.03425847 -280.12252808 146.74432373 C-278.24586896 142.15632254 -276.3690394 137.56839108 -274.4921875 132.98046875 C-274.12050949 132.07190125 -273.74883148 131.16333374 -273.3658905 130.22723389 C-271.13647329 124.77756752 -268.90664943 119.32806775 -266.67648315 113.87870789 C-265.19639157 110.26210592 -263.71643317 106.64544946 -262.23651123 103.02877808 C-261.49766133 101.22319867 -260.75876997 99.41763624 -260.01983643 97.61209106 C-255.57342648 86.74705146 -251.13390568 75.87923575 -246.703125 65.0078125 C-245.80583492 62.80688147 -244.90853678 60.60595372 -244.01123047 58.4050293 C-242.3059142 54.22209179 -240.60200554 50.03858484 -238.89892578 45.85473633 C-234.01491286 33.86776029 -229.05296346 21.91676033 -224 10 C-222.35 10 -220.7 10 -219 10 C-218.67602737 10.80477783 -218.35205475 11.60955566 -218.01826477 12.4387207 C-214.13481601 22.08552198 -210.25127056 31.73228434 -206.36766052 41.37902069 C-205.66389284 43.1271533 -204.96012698 44.87528665 -204.25636292 46.62342072 C-196.41080856 66.11157838 -188.56486104 85.59957705 -180.71484375 105.0859375 C-180.13142819 106.53420478 -179.54801347 107.98247239 -178.96459961 109.43074036 C-176.64272703 115.19450981 -174.32084124 120.95827391 -171.99859619 126.72189331 C-165.03519419 144.00462731 -158.07805971 161.28986022 -151.13077164 178.57907867 C-149.96313348 181.48472473 -148.79530859 184.39029566 -147.62741089 187.2958374 C-147.24180685 188.25515923 -146.85620281 189.21448105 -146.4589138 190.20287323 C-145.6813162 192.13739135 -144.90370924 194.07190572 -144.12609291 196.00641632 C-142.25160018 200.66995326 -140.37763853 205.33370205 -138.50500488 209.99798584 C-134.03027754 221.14289755 -129.54365285 232.28291976 -125.04302216 243.41739655 C-123.97126989 246.07113798 -122.90175865 248.72577469 -121.83258057 251.3805542 C-120.03789193 255.8347211 -118.23494971 260.28547146 -116.42646217 264.73405266 C-115.75175932 266.39692149 -115.07951422 268.06079022 -114.4100399 269.72577095 C-103.63566573 296.66572688 -103.63566573 296.66572688 -82.9375 316.1953125 C-79.45313625 317.64244744 -76.51965048 316.54162695 -73.08203125 315.31640625 C-65.68345402 312.09652254 -61.10389234 306.83013321 -57.92962742 299.49930382 C-55.78909479 294.03385769 -55.4338373 289.24662394 -55.4853363 283.42520142 C-55.47491801 281.89987842 -55.47491801 281.89987842 -55.46428925 280.34374082 C-55.4461013 276.9615172 -55.45626101 273.58000153 -55.46655273 270.19775391 C-55.45949011 267.76257302 -55.45074366 265.32739652 -55.44044495 262.89222717 C-55.42030919 256.97926076 -55.4189141 251.066472 -55.42707049 245.15349342 C-55.43338734 240.34403347 -55.43221807 235.53462952 -55.42579842 230.72517014 C-55.42444593 229.69580207 -55.42444593 229.69580207 -55.42306613 228.6456387 C-55.4212148 227.2512298 -55.41935223 225.85682091 -55.41747857 224.46241204 C-55.40092386 211.40511244 -55.40959905 198.34792108 -55.42646415 185.290628 C-55.44115534 173.36530111 -55.42653688 161.4402263 -55.39769398 149.51493187 C-55.36824541 137.24711527 -55.35734381 124.9794148 -55.36687618 112.71156442 C-55.36789866 111.32186343 -55.36889327 109.93216242 -55.3698597 108.5424614 C-55.37057428 107.51702384 -55.37057428 107.51702384 -55.3713033 106.47087038 C-55.37346044 101.67283275 -55.36370073 96.87490594 -55.34908867 92.07689285 C-55.32965933 85.60724513 -55.33673723 79.13795052 -55.36128807 72.66831779 C-55.36628398 70.2996678 -55.36283812 67.93098198 -55.35013962 65.56236076 C-55.08768488 45.99375611 -55.08768488 45.99375611 -64.0625 29.0625 C-70.61120061 23.21442456 -79.36854645 20.49796847 -88 20 C-88 18.35 -88 16.7 -88 15 C-87.26021408 14.99413376 -86.52042816 14.98826752 -85.75822449 14.98222351 C-78.74184032 14.92400561 -71.72576742 14.85176605 -64.70969677 14.76428509 C-61.10376972 14.71980492 -57.49794986 14.68050177 -53.8918457 14.65356445 C-50.40325481 14.62730553 -46.9150815 14.58674987 -43.42675209 14.53681374 C-41.46682385 14.51232908 -39.50673329 14.50215915 -37.54667664 14.49235535 C-26.07770412 14.3063408 -13.03465271 12.41439301 -4.18359375 4.34375 C-3.66925781 3.7971875 -3.15492188 3.250625 -2.625 2.6875 C-1.75875 1.800625 -0.8925 0.91375 0 0 Z " fill="#56A3A6" transform="translate(846,202)"/>
<path d="M0 0 C1.45237061 0.71905518 1.45237061 0.71905518 2.93408203 1.45263672 C29.15258619 14.499515 53.16175174 30.46237757 75 50 C75.92425781 50.825 76.84851563 51.65 77.80078125 52.5 C79.45904384 53.98966837 81.11304117 55.48410539 82.76171875 56.984375 C84.87189491 58.88463834 87.02287855 60.72484813 89.1875 62.5625 C92.54550751 65.48221336 95.42006659 68.65125808 98.29296875 72.04296875 C99.91260807 73.89980925 101.60123291 75.60397492 103.375 77.3125 C107.50416423 81.38673079 111.08967153 85.8592905 114.70507812 90.38867188 C116.08727834 92.10860427 117.487746 93.81252619 118.890625 95.515625 C125.84332536 104.00376015 132.1194402 112.7407076 138 122 C138.42071777 122.65210449 138.84143555 123.30420898 139.27490234 123.97607422 C188.96908506 201.23456122 205.43499721 295.17676004 186.59375 384.89453125 C184.5031358 394.41465305 182.0111117 403.73129045 179 413 C178.51490967 414.50457764 178.51490967 414.50457764 178.02001953 416.03955078 C167.48249202 448.37919814 153.3465456 478.95915583 134 507 C133.30946533 508.00691895 133.30946533 508.00691895 132.60498047 509.03417969 C127.11335543 517.00400403 121.25543073 524.61089898 115 532 C114.53303711 532.55719727 114.06607422 533.11439453 113.58496094 533.68847656 C107.35147727 541.12398705 100.9868941 548.25449572 94 555 C91.47682888 557.50697098 88.97228171 560.02849543 86.4921875 562.578125 C80.32701747 568.87211948 73.91199111 574.52120389 67 580 C65.90181772 580.90925487 64.80554788 581.82082321 63.7109375 582.734375 C15.43755375 622.71181881 -44.80915702 646.14983513 -106.3125 655.6875 C-107.43833496 655.86647827 -107.43833496 655.86647827 -108.58691406 656.04907227 C-142.13178827 661.02467941 -178.6766394 659.89785479 -212 654 C-213.07878418 653.81276367 -214.15756836 653.62552734 -215.26904297 653.43261719 C-275.3917642 642.69012202 -337.44535843 614.34594994 -382 572 C-383.41011447 570.76332207 -384.826336 569.53355527 -386.25 568.3125 C-390.01200552 565.0428633 -393.51276137 561.55776705 -397 558 C-399.58144649 555.40566776 -402.17621416 552.8282158 -404.796875 550.2734375 C-411.35520991 543.86076979 -417.36490016 537.25427626 -423 530 C-423.49113281 529.37464355 -423.98226562 528.74928711 -424.48828125 528.10498047 C-432.13055179 518.36387469 -439.3621285 508.45293683 -446 498 C-446.70125 496.90429688 -447.4025 495.80859375 -448.125 494.6796875 C-475.23582532 451.38749911 -491.09650264 403.0948974 -497.59863281 352.67529297 C-497.93176979 350.10868529 -497.93176979 350.10868529 -498.51538086 348.08618164 C-501.16815647 336.66655061 -500.20382556 323.61889484 -500.1875 311.9375 C-500.18689575 311.12985199 -500.1862915 310.32220398 -500.18566895 309.49008179 C-500.15889178 296.23423992 -499.67682556 283.16238004 -498 270 C-497.88172852 269.02224609 -497.76345703 268.04449219 -497.64160156 267.03710938 C-492.85603171 228.58207221 -481.16933331 191.68975456 -464 157 C-463.53980469 156.06188477 -463.07960938 155.12376953 -462.60546875 154.15722656 C-456.00614115 140.80167092 -448.41107517 128.28836914 -440 116 C-439.53674316 115.32291992 -439.07348633 114.64583984 -438.59619141 113.94824219 C-433.10748188 105.98486605 -427.2508288 98.38366509 -421 91 C-420.53303711 90.44280273 -420.06607422 89.88560547 -419.58496094 89.31152344 C-413.35147727 81.87601295 -406.9868941 74.74550428 -400 68 C-397.40360317 65.4204903 -394.8282789 62.82385056 -392.2734375 60.203125 C-386.36586778 54.16133855 -380.33745757 48.51063444 -373.6640625 43.3046875 C-371.73293301 41.79060945 -369.82037873 40.25425986 -367.90625 38.71875 C-357.98573229 30.81668319 -347.81851346 23.61659083 -337 17 C-336.29488281 16.56703613 -335.58976563 16.13407227 -334.86328125 15.68798828 C-325.47393714 9.95646925 -315.91156018 4.72541212 -305.99609375 -0.03662109 C-304.01041462 -0.99497357 -302.03631733 -1.9745197 -300.0625 -2.95703125 C-271.60588628 -16.9451177 -241.12375189 -25.44669802 -210 -31 C-208.81680176 -31.21317871 -207.63360352 -31.42635742 -206.41455078 -31.64599609 C-137.17568759 -43.59811197 -62.59483823 -31.36843787 0 0 Z M-210 -12 C-211.81207138 -11.68244024 -213.62455837 -11.36724076 -215.4375 -11.0546875 C-247.73177971 -5.26903743 -279.05763832 6.71662502 -308 22 C-309.0523584 22.55010742 -309.0523584 22.55010742 -310.12597656 23.11132812 C-344.46844725 41.17665984 -378.56691126 67.6996799 -402.80078125 98.2421875 C-405.07536417 101.0945064 -407.43869993 103.85493759 -409.8125 106.625 C-432.02732542 133.33772671 -448.45620908 164.75039374 -461 197 C-461.30131836 197.77005371 -461.60263672 198.54010742 -461.91308594 199.33349609 C-466.64981401 211.59933434 -469.87225008 224.24453775 -473 237 C-473.29801514 238.17731689 -473.29801514 238.17731689 -473.60205078 239.37841797 C-476.97879924 252.75837753 -478.58102596 266.28928305 -480 280 C-480.08365814 280.74472061 -480.16731628 281.48944122 -480.25350952 282.25672913 C-480.87410183 287.99673817 -481.17153848 293.66187184 -481.203125 299.43359375 C-481.21013931 300.3007753 -481.21715363 301.16795685 -481.22438049 302.06141663 C-481.24180852 304.85349787 -481.24823578 307.6453663 -481.25 310.4375 C-481.25067474 311.3960791 -481.25134949 312.3546582 -481.25204468 313.34228516 C-481.23447804 329.0898715 -480.50150305 344.42487754 -478 360 C-477.73461426 361.68367676 -477.73461426 361.68367676 -477.46386719 363.40136719 C-472.26839876 395.53430752 -462.33009154 426.74771144 -448 456 C-447.55962402 456.90524414 -447.11924805 457.81048828 -446.66552734 458.74316406 C-437.33099998 477.74988518 -426.0706503 495.34382111 -413 512 C-412.33742188 512.85464844 -411.67484375 513.70929687 -410.9921875 514.58984375 C-406.90090745 519.79619817 -402.59771459 524.75974809 -398.1328125 529.6484375 C-396.31631319 531.65124444 -394.55945881 533.68700844 -392.8125 535.75 C-384.77228875 544.94680777 -376.01406592 553.49613634 -366.4296875 561.06640625 C-364.29046345 562.76884339 -362.26889089 564.53373685 -360.25 566.375 C-321.27886269 600.68224867 -270.39735281 622.03016459 -220.25 633.1875 C-219.20553711 633.42557373 -218.16107422 633.66364746 -217.08496094 633.90893555 C-196.60150912 638.28969177 -176.02068689 639.52712919 -155.125 639.375 C-153.99146088 639.37067963 -152.85792175 639.36635925 -151.69003296 639.36190796 C-134.9718169 639.28733282 -118.50666744 638.89368674 -102 636 C-100.92347168 635.81244141 -99.84694336 635.62488281 -98.73779297 635.43164062 C-91.45198718 634.12558465 -84.2181094 632.63777903 -77 631 C-75.95924316 630.76676025 -75.95924316 630.76676025 -74.89746094 630.52880859 C-70.54338762 629.52854851 -66.26644566 628.31831502 -62 627 C-61.04963867 626.70641602 -60.09927734 626.41283203 -59.12011719 626.11035156 C-37.23735307 619.2583069 -16.27130068 610.723417 4 600 C4.61794434 599.67773438 5.23588867 599.35546875 5.87255859 599.0234375 C27.74565443 587.53568078 47.68730374 572.65061633 65.8515625 555.96484375 C67.82501082 554.16003556 69.83863832 552.42048535 71.875 550.6875 C80.18597666 543.43857512 87.91714593 535.44555083 95 527 C95.71027344 526.17886719 96.42054688 525.35773437 97.15234375 524.51171875 C153.98505549 457.9152024 181.02967929 370.42390197 174.69091797 283.390625 C168.91584122 213.38702396 139.42908492 145.20168588 92.1015625 93.3203125 C90.27717206 91.30602269 88.50906198 89.25851386 86.75 87.1875 C79.05282146 78.3856338 70.68849114 70.28118469 61.51953125 63.02734375 C59.22699881 61.18265485 57.08677489 59.25738102 54.9375 57.25 C13.86752089 20.48397962 -42.86961861 -2.61230676 -96.625 -12.25 C-97.45717041 -12.40114258 -98.28934082 -12.55228516 -99.14672852 -12.70800781 C-117.49795647 -15.78535956 -135.92887898 -16.40547999 -154.5 -16.375 C-155.63864502 -16.37512085 -156.77729004 -16.3752417 -157.95043945 -16.37536621 C-175.66588723 -16.34865451 -192.57904939 -15.38080522 -210 -12 Z " fill="#36322F" transform="translate(903,651)"/>
<path d="M0 0 C2.05078125 0.03255208 4.1015625 0.06510417 6.15234375 0.09765625 C7.25390625 2.72916667 8.35546875 5.36067708 9.45703125 7.9921875 C9.98250046 9.24747505 9.98250046 9.24747505 10.51858521 10.52812195 C11.66651917 13.27040863 11.66651917 13.27040863 12.81445312 16.01269531 C13.21470703 16.96885742 13.61496094 17.92501953 14.02734375 18.91015625 C44.40234372 91.47265619 44.40234372 91.47265619 45.52737427 94.16023254 C46.27726932 95.95164625 47.0271676 97.7430586 47.77706909 99.5344696 C49.65370119 104.01749558 51.53027709 108.50054506 53.40673828 112.98364258 C56.76216201 121.0000131 60.11792262 129.01624136 63.47590637 137.03153992 C64.95584389 140.56417085 66.43542426 144.09695133 67.91500854 147.62973022 C68.6549958 149.39626733 69.39516836 151.16272683 70.13552856 152.92910767 C74.56053297 163.48655863 78.96613349 174.05171042 83.34375 184.62890625 C93.64432997 209.66204439 93.64432997 209.66204439 104.46484375 234.47265625 C105.04866821 235.78786255 105.04866821 235.78786255 105.64428711 237.12963867 C111.41741277 249.63493524 119.10083492 259.46549953 132.02734375 264.78515625 C136.32047587 266.33405097 140.61920926 266.79334861 145.15234375 267.09765625 C145.15234375 269.73765625 145.15234375 272.37765625 145.15234375 275.09765625 C110.17234375 275.09765625 75.19234375 275.09765625 39.15234375 275.09765625 C39.15234375 272.78765625 39.15234375 270.47765625 39.15234375 268.09765625 C40.30992187 267.84371094 41.4675 267.58976562 42.66015625 267.328125 C44.19931085 266.98087671 45.73836828 266.63319758 47.27734375 266.28515625 C48.41816406 266.03668945 48.41816406 266.03668945 49.58203125 265.78320312 C57.83084585 263.93214467 57.83084585 263.93214467 64.02734375 258.53515625 C69.43468457 242.01272598 57.85960762 222.06017761 51.33984375 207.22265625 C50.15674651 204.51630023 48.97661806 201.80875691 47.80281067 199.09835815 C47.07964889 197.42976852 46.35095412 195.76356295 45.61601257 194.10012817 C45.29179825 193.35439545 44.96758392 192.60866272 44.63354492 191.84033203 C44.34662277 191.18767365 44.05970062 190.53501526 43.76408386 189.86257935 C43.15234375 188.09765625 43.15234375 188.09765625 43.15234375 185.09765625 C8.17234375 185.09765625 -26.80765625 185.09765625 -62.84765625 185.09765625 C-63.17765625 186.74765625 -63.50765625 188.39765625 -63.84765625 190.09765625 C-64.37188026 191.52517565 -64.94093737 192.93690715 -65.55004883 194.33032227 C-66.07112968 195.53296471 -66.07112968 195.53296471 -66.60273743 196.75990295 C-67.16676521 198.04277443 -67.16676521 198.04277443 -67.7421875 199.3515625 C-68.13081467 200.24826157 -68.51944183 201.14496063 -68.91984558 202.0688324 C-70.57606021 205.88998415 -72.24350802 209.70620186 -73.91040039 213.52270508 C-83.61955742 233.02944468 -83.61955742 233.02944468 -85.84765625 254.09765625 C-84.11609782 258.28985033 -81.6783342 260.70348253 -77.84765625 263.09765625 C-70.73786209 265.61522271 -63.27064575 266.87724212 -55.84765625 268.09765625 C-55.84765625 270.40765625 -55.84765625 272.71765625 -55.84765625 275.09765625 C-83.89765625 275.09765625 -111.94765625 275.09765625 -140.84765625 275.09765625 C-140.84765625 272.78765625 -140.84765625 270.47765625 -140.84765625 268.09765625 C-139.96078125 267.87078125 -139.07390625 267.64390625 -138.16015625 267.41015625 C-133.23149389 266.01353324 -128.50354592 264.08606883 -123.73828125 262.21875 C-121.79253766 261.46411701 -119.8275174 260.75760997 -117.84765625 260.09765625 C-116.8025989 258.25840226 -116.8025989 258.25840226 -115.84765625 256.09765625 C-114.82298187 254.6686509 -113.77927563 253.25320575 -112.72265625 251.84765625 C-109.8922886 247.82021962 -107.47337511 243.70486086 -105.2890625 239.30078125 C-104.95023544 238.61935059 -104.61140839 237.93791992 -104.26231384 237.23583984 C-99.1016683 226.6960285 -94.54928958 215.87362527 -89.91015625 205.09765625 C-88.88305476 202.72051706 -87.85570761 200.34348399 -86.828125 197.96655273 C-79.21884046 180.34874659 -71.68870523 162.69779924 -64.20690918 145.02554321 C-59.41515533 133.70965935 -54.60002124 122.40372109 -49.78515625 111.09765625 C-49.30574585 109.97171051 -48.82633545 108.84576477 -48.33239746 107.68569946 C-42.71260741 94.48869479 -37.08105854 81.29678947 -31.4296875 68.11328125 C-31.16359617 67.4925322 -30.89750484 66.87178314 -30.62335014 66.23222351 C-27.81057229 59.67094489 -24.99598883 53.11044361 -22.17944336 46.55078125 C-21.24064456 44.36331476 -20.30192257 42.17581531 -19.36328125 39.98828125 C-18.91175186 38.9365271 -18.46022247 37.88477295 -17.99501038 36.80114746 C-15.5569266 31.11409431 -13.13607241 25.42013096 -10.73632812 19.71679688 C-10.22906189 18.51230896 -9.72179565 17.30782104 -9.19915771 16.0668335 C-8.22185147 13.74343752 -7.24671179 11.41912875 -6.27398682 9.09381104 C-5.83906921 8.0596405 -5.40415161 7.02546997 -4.95605469 5.95996094 C-4.57205505 5.04301453 -4.18805542 4.12606812 -3.79241943 3.18133545 C-2.40766562 0.12725505 -2.40766562 0.12725505 0 0 Z " fill="#35312E" transform="translate(680.84765625,839.90234375)"/>
<path d="M0 0 C2.23417286 3.35125929 3.62666637 6.8088011 5.09765625 10.53125 C5.40366257 11.29772858 5.70966888 12.06420715 6.02494812 12.85391235 C7.04085819 15.40127132 8.0517093 17.9506058 9.0625 20.5 C9.77676743 22.29420793 10.49129009 24.08831428 11.20605469 25.88232422 C17.12723248 40.75591716 23.01116856 55.64442527 28.88476562 70.53686523 C32.14622759 78.80348919 35.41833065 87.06525937 38.73828125 95.30859375 C39.02551056 96.02253296 39.31273987 96.73647217 39.6086731 97.4720459 C40.93406502 100.76531322 42.26306075 104.0570395 43.59863281 107.34619141 C44.27877441 109.03301025 44.27877441 109.03301025 44.97265625 110.75390625 C45.56445679 112.21292358 45.56445679 112.21292358 46.16821289 113.70141602 C47 116 47 116 47 118 C15.65 118 -15.7 118 -48 118 C-42.07750673 102.60151751 -36.12063262 87.30496851 -29.765625 72.09375 C-26.63193966 64.56834574 -23.55600691 57.01965921 -20.484375 49.46875 C-19.75030426 47.66431427 -19.75030426 47.66431427 -19.00140381 45.82342529 C-17.00589281 40.91656313 -15.01119072 36.00937541 -13.0189209 31.10119629 C-11.60755038 27.62427252 -10.19448191 24.14804251 -8.78125 20.671875 C-8.35873962 19.62914429 -7.93622925 18.58641357 -7.50091553 17.51208496 C-5.10607363 11.62479031 -2.62559842 5.78824076 0 0 Z " fill="#E5E1DC" transform="translate(594,294)"/>
<path d="M0 0 C0.66 0 1.32 0 2 0 C2.26925293 0.65331299 2.53850586 1.30662598 2.81591797 1.97973633 C9.45886895 18.08799626 16.15012326 34.17577844 22.875 50.25 C23.25571655 51.16061188 23.63643311 52.07122375 24.02868652 53.00942993 C28.07378077 62.68237441 32.13671229 72.34687335 36.265625 81.984375 C36.76251328 83.14625336 36.76251328 83.14625336 37.2694397 84.331604 C38.8185591 87.95352152 40.37266759 91.57310822 41.93701172 95.18847656 C42.48166653 96.45888956 43.02611327 97.72939179 43.5703125 99 C44.04227051 100.093125 44.51422852 101.18625 45.00048828 102.3125 C46 105 46 105 46 108 C15.64 108 -14.72 108 -46 108 C-42.83735774 99.77713013 -39.64330826 91.66967156 -36.11328125 83.61328125 C-35.65802063 82.56772064 -35.20276001 81.52216003 -34.73370361 80.44491577 C-33.76301069 78.21613885 -32.79113331 75.98787746 -31.81814575 73.76010132 C-29.25316987 67.88686439 -26.69718553 62.00971627 -24.140625 56.1328125 C-23.62564957 54.94952866 -23.11067413 53.76624481 -22.58009338 52.54710388 C-17.53383037 40.94451716 -12.53954067 29.31992006 -7.5625 17.6875 C-6.97718002 16.31979965 -6.97718002 16.31979965 -6.3800354 14.92446899 C-4.25162073 9.95038685 -2.12490802 4.97558114 0 0 Z " fill="#E5E0DB" transform="translate(671,902)"/>
<path d="M0 0 C8.1231636 4.48388694 14.12529191 12.13576824 17.08203125 20.98828125 C18.90477642 30.32796727 18.63687084 40.19099182 13.5546875 48.41015625 C7.6169926 56.63344044 1.1052485 61.22663592 -8.4453125 64.41015625 C-20.37872931 65.23642007 -29.63378029 64.57904463 -39.2578125 56.78515625 C-46.24743127 50.17903869 -49.45172882 42.10625878 -49.83984375 32.62280273 C-50.05993202 21.28950738 -47.38273953 13.27354033 -39.4453125 4.84765625 C-28.35505882 -5.33597974 -13.30953443 -6.33703297 0 0 Z " fill="#57A3A6" transform="translate(957.4453125,210.58984375)"/>
</svg>
